<?xml version="1.0" encoding="UTF-8" standalone="no"?>
<svg
   xmlns:dc="http://purl.org/dc/elements/1.1/"
   xmlns:cc="http://creativecommons.org/ns#"
   xmlns:rdf="http://www.w3.org/1999/02/22-rdf-syntax-ns#"
   xmlns:svg="http://www.w3.org/2000/svg"
   xmlns="http://www.w3.org/2000/svg"
   xmlns:sodipodi="http://sodipodi.sourceforge.net/DTD/sodipodi-0.dtd"
   xmlns:inkscape="http://www.inkscape.org/namespaces/inkscape"
   viewBox="0 0 512 512"
   version="1.1"
   id="svg13"
   sodipodi:docname="shuffle-icon.svg"
   inkscape:version="1.0.1 (3bc2e813f5, 2020-09-07)">
  <metadata
     id="metadata19">
    <rdf:RDF>
      <cc:Work
         rdf:about="">
        <dc:format>image/svg+xml</dc:format>
        <dc:type
           rdf:resource="http://purl.org/dc/dcmitype/StillImage" />
      </cc:Work>
    </rdf:RDF>
  </metadata>
  <defs
     id="defs17" />
  <sodipodi:namedview
     pagecolor="#ffffff"
     bordercolor="#666666"
     borderopacity="1"
     objecttolerance="10"
     gridtolerance="10"
     guidetolerance="10"
     inkscape:pageopacity="0"
     inkscape:pageshadow="2"
     inkscape:window-width="1706"
     inkscape:window-height="914"
     id="namedview15"
     showgrid="false"
     inkscape:zoom="1.4765625"
     inkscape:cx="257.3545"
     inkscape:cy="256"
     inkscape:window-x="0"
     inkscape:window-y="0"
     inkscape:window-maximized="1"
     inkscape:current-layer="svg13" />
  <title
     id="title2" />
  <path
     d="m 102.59,341.42 a 15,15 0 0 1 -13.42,-8.28 187.41,187.41 0 0 1 35.11,-216.86 c 73.18,-73.19 192.26,-73.19 265.44,0 a 15,15 0 0 1 -21.21,21.21 C 307,76 207,76 145.49,137.49 A 157.45,157.45 0 0 0 116,319.69 15,15 0 0 1 102.6,341.42 Z"
     id="path4"
     style="fill:#4d4d4d;fill-opacity:1" />
  <path
     d="M 257,436.61 A 187.1,187.1 0 0 1 124.28,381.73 15.001271,15.001271 0 1 1 145.49,360.51 C 207,422 307,422 368.51,360.51 A 157.45,157.45 0 0 0 398,178.31 15.001791,15.001791 0 0 1 424.82,164.86 187.62,187.62 0 0 1 257,436.61 Z"
     id="path6"
     style="fill:#4d4d4d;fill-opacity:1" />
  <path
     d="m 315.21,148.25 a 15,15 0 0 1 -1.47,-29.92 l 47.43,-4.73 -9.51,-47.67 a 15,15 0 0 1 29.42,-5.86 L 393.82,124 a 15,15 0 0 1 -13.22,17.86 l -63.88,6.37 c -0.51,0 -1.01,0.02 -1.51,0.02 z"
     id="path8"
     style="fill:#4d4d4d;fill-opacity:1" />
  <path
     d="m 147.61,450 a 15,15 0 0 1 -14.7,-12.07 l -12.74,-63.88 a 15,15 0 0 1 13.23,-17.86 l 63.88,-6.37 a 15.000187,15.000187 0 0 1 3,29.85 l -47.43,4.73 9.5,47.67 A 15,15 0 0 1 147.61,450 Z"
     id="path10"
     style="fill:#4d4d4d;fill-opacity:1" />
</svg>
